<?xml version="1.0" encoding="UTF-8"?>
<svg width="300px" height="80px" viewBox="0 0 300 80" version="1.1" xmlns="http://www.w3.org/2000/svg" xmlns:xlink="http://www.w3.org/1999/xlink">
    <title>logo_white</title>
    <g id="Page-1" stroke="none" stroke-width="1" fill="none" fill-rule="evenodd">
        <g id="logo_white">
            <rect id="Rectangle" fill="#FFFFFF" x="0" y="0" width="300" height="80"></rect>
            <path d="M28.1701168,58.0446927 C31.3860298,58.0446927 33.9386608,57.5519553 35.8280097,56.5664804 C37.7173586,55.5810056 39.1645194,54.3541899 40.1694923,52.8860335 C41.1744651,51.4178771 41.8176477,49.8391061 42.0990401,48.1497207 C42.3804325,46.4603352 42.5211287,44.9117318 42.5211287,43.5039106 L42.5211287,14 L33.0542847,14 L33.0542847,43.0815642 C33.0542847,43.8458101 33.0241355,44.6402235 32.9638371,45.4648045 C32.9035388,46.2893855 32.7226437,47.0536313 32.4211518,47.7575419 C32.11966,48.4614525 31.6272233,49.0346369 30.9438418,49.477095 C30.2604602,49.9195531 29.2956863,50.1407821 28.04952,50.1407821 C26.9239505,50.1407821 26.0094252,49.9597765 25.3059442,49.5977654 C24.6024633,49.2357542 24.0497282,48.7430168 23.6477391,48.1195531 C23.24575,47.4960894 22.9643576,46.7418994 22.8035619,45.8569832 C22.6427663,44.972067 22.5623684,44.0067039 22.5623684,42.9608939 L22.5623684,41.0301676 L14,41.0301676 L14,44.7709497 C14,47.1441341 14.4019891,49.1653631 15.2059674,50.8346369 C16.0099456,52.5039106 17.0752168,53.8715084 18.401781,54.9374302 C19.7283451,56.003352 21.2358043,56.7877095 22.9241586,57.2905028 C24.612513,57.7932961 26.3611657,58.0446927 28.1701168,58.0446927 Z M61.1834739,57.8636872 C63.6356076,57.8636872 65.8565976,57.4815642 67.8464437,56.7173184 C69.8362899,55.9530726 71.534694,54.8569832 72.9416559,53.4290503 C74.3486179,52.0011173 75.4339885,50.2815642 76.1977679,48.2703911 C76.9615472,46.2592179 77.3434369,44.0067039 77.3434369,41.5128492 C77.3434369,39.0189944 76.9615472,36.7564246 76.1977679,34.7251397 C75.4339885,32.6938547 74.3486179,30.9642458 72.9416559,29.5363128 C71.534694,28.1083799 69.8362899,27.0022346 67.8464437,26.2178771 C65.8565976,25.4335196 63.6356076,25.0413408 61.1834739,25.0413408 C58.7313403,25.0413408 56.5204001,25.4335196 54.5506533,26.2178771 C52.5809066,27.0022346 50.8925523,28.1083799 49.4855903,29.5363128 C48.0786284,30.9642458 46.9932577,32.6938547 46.2294784,34.7251397 C45.465699,36.7564246 45.0838093,39.0189944 45.0838093,41.5128492 C45.0838093,44.0067039 45.465699,46.2592179 46.2294784,48.2703911 C46.9932577,50.2815642 48.0786284,52.0011173 49.4855903,53.4290503 C50.8925523,54.8569832 52.5809066,55.9530726 54.5506533,56.7173184 C56.5204001,57.4815642 58.7313403,57.8636872 61.1834739,57.8636872 Z M61.1834739,51.4681564 C59.7363131,51.4681564 58.5303457,51.1865922 57.5655718,50.6234637 C56.6007979,50.0603352 55.8269688,49.3061453 55.2440846,48.3608939 C54.6612003,47.4156425 54.2491615,46.3497207 54.007968,45.1631285 C53.7667745,43.9765363 53.6461778,42.7597765 53.6461778,41.5128492 C53.6461778,40.2659218 53.7667745,39.0391061 54.007968,37.8324022 C54.2491615,36.6256983 54.6612003,35.5597765 55.2440846,34.6346369 C55.8269688,33.7094972 56.6007979,32.9553073 57.5655718,32.372067 C58.5303457,31.7888268 59.7363131,31.4972067 61.1834739,31.4972067 C62.6306348,31.4972067 63.8466519,31.7888268 64.8315253,32.372067 C65.8163986,32.9553073 66.6002774,33.7094972 67.1831617,34.6346369 C67.7660459,35.5597765 68.1780848,36.6256983 68.4192783,37.8324022 C68.6604717,39.0391061 68.7810685,40.2659218 68.7810685,41.5128492 C68.7810685,42.7597765 68.6604717,43.9765363 68.4192783,45.1631285 C68.1780848,46.3497207 67.7660459,47.4156425 67.1831617,48.3608939 C66.6002774,49.3061453 65.8163986,50.0603352 64.8315253,50.6234637 C63.8466519,51.1865922 62.6306348,51.4681564 61.1834739,51.4681564 Z M83.6446165,68 C86.5791371,68 88.8704752,67.4569832 90.5186306,66.3709497 C92.166786,65.2849162 93.4531512,63.4748603 94.3777262,60.9407821 L107.402174,25.8860335 L98.5383137,25.8860335 L91.724598,47.2446927 L91.6040012,47.2446927 L84.549092,25.8860335 L75.4440383,25.8860335 L86.3580431,55.1486034 C86.5992366,55.7519553 86.7198333,56.3955307 86.7198333,57.0793296 C86.7198333,58.0044693 86.4484907,58.849162 85.9058053,59.6134078 C85.36312,60.3776536 84.5289926,60.8201117 83.403423,60.9407821 C82.5592458,60.9810056 81.7150687,60.9608939 80.8708915,60.8804469 C80.0267143,60.8 79.2026366,60.7195531 78.3986584,60.6391061 L78.3986584,67.698324 C79.2830344,67.7787709 80.1573608,67.849162 81.0216374,67.9094972 C81.885914,67.9698324 82.7602404,68 83.6446165,68 Z M129.652272,57.0793296 L129.652272,38.4960894 L147.078501,38.4960894 L147.078501,57.0793296 L156.545345,57.0793296 L156.545345,14 L147.078501,14 L147.078501,30.5318436 L129.652272,30.5318436 L129.652272,14 L120.185428,14 L120.185428,57.0793296 L129.652272,57.0793296 Z M175.20769,57.8636872 C177.659824,57.8636872 179.880814,57.4815642 181.87066,56.7173184 C183.860506,55.9530726 185.55891,54.8569832 186.965872,53.4290503 C188.372834,52.0011173 189.458205,50.2815642 190.221984,48.2703911 C190.985763,46.2592179 191.367653,44.0067039 191.367653,41.5128492 C191.367653,39.0189944 190.985763,36.7564246 190.221984,34.7251397 C189.458205,32.6938547 188.372834,30.9642458 186.965872,29.5363128 C185.55891,28.1083799 183.860506,27.0022346 181.87066,26.2178771 C179.880814,25.4335196 177.659824,25.0413408 175.20769,25.0413408 C172.755557,25.0413408 170.544616,25.4335196 168.57487,26.2178771 C166.605123,27.0022346 164.916769,28.1083799 163.509807,29.5363128 C162.102845,30.9642458 161.017474,32.6938547 160.253695,34.7251397 C159.489915,36.7564246 159.108026,39.0189944 159.108026,41.5128492 C159.108026,44.0067039 159.489915,46.2592179 160.253695,48.2703911 C161.017474,50.2815642 162.102845,52.0011173 163.509807,53.4290503 C164.916769,54.8569832 166.605123,55.9530726 168.57487,56.7173184 C170.544616,57.4815642 172.755557,57.8636872 175.20769,57.8636872 Z M175.20769,51.4681564 C173.760529,51.4681564 172.554562,51.1865922 171.589788,50.6234637 C170.625014,50.0603352 169.851185,49.3061453 169.268301,48.3608939 C168.685417,47.4156425 168.273378,46.3497207 168.032184,45.1631285 C167.790991,43.9765363 167.670394,42.7597765 167.670394,41.5128492 C167.670394,40.2659218 167.790991,39.0391061 168.032184,37.8324022 C168.273378,36.6256983 168.685417,35.5597765 169.268301,34.6346369 C169.851185,33.7094972 170.625014,32.9553073 171.589788,32.372067 C172.554562,31.7888268 173.760529,31.4972067 175.20769,31.4972067 C176.654851,31.4972067 177.870868,31.7888268 178.855742,32.372067 C179.840615,32.9553073 180.624494,33.7094972 181.207378,34.6346369 C181.790262,35.5597765 182.202301,36.6256983 182.443495,37.8324022 C182.684688,39.0391061 182.805285,40.2659218 182.805285,41.5128492 C182.805285,42.7597765 182.684688,43.9765363 182.443495,45.1631285 C182.202301,46.3497207 181.790262,47.4156425 181.207378,48.3608939 C180.624494,49.3061453 179.840615,50.0603352 178.855742,50.6234637 C177.870868,51.1865922 176.654851,51.4681564 175.20769,51.4681564 Z M204.42225,57.8636872 C206.231201,57.8636872 207.999953,57.4614525 209.728507,56.6569832 C211.45706,55.852514 212.864022,54.5452514 213.949392,52.7351955 L214.130288,52.7351955 L214.130288,57.0793296 L222.270567,57.0793296 L222.270567,25.8860335 L213.708199,25.8860335 L213.708199,42.2368715 C213.708199,45.4145251 213.185613,47.6972067 212.140441,49.0849162 C211.09527,50.4726257 209.406915,51.1664804 207.075378,51.1664804 C205.025234,51.1664804 203.598172,50.5329609 202.794194,49.2659218 C201.990216,47.9988827 201.588227,46.0782123 201.588227,43.5039106 L201.588227,25.8860335 L193.025858,25.8860335 L193.025858,45.0726257 C193.025858,47.003352 193.196704,48.7631285 193.538394,50.3519553 C193.880085,51.9407821 194.473019,53.2882682 195.317196,54.3944134 C196.161374,55.5005587 197.317092,56.3553073 198.784353,56.9586592 C200.251613,57.5620112 202.130912,57.8636872 204.42225,57.8636872 Z M238.038591,57.8636872 C239.807343,57.8636872 241.545946,57.6927374 243.2544,57.350838 C244.962854,57.0089385 246.480363,56.4156425 247.806927,55.5709497 C249.133491,54.726257 250.208812,53.6100559 251.03289,52.2223464 C251.856967,50.8346369 252.269006,49.1150838 252.269006,47.0636872 C252.269006,45.6156425 251.987614,44.3988827 251.424829,43.4134078 C250.862044,42.427933 250.118364,41.603352 249.193789,40.9396648 C248.269214,40.2759777 247.213993,39.7430168 246.028125,39.3407821 C244.842257,38.9385475 243.62624,38.596648 242.380074,38.3150838 C241.174106,38.0335196 239.988238,37.772067 238.82247,37.5307263 C237.656701,37.2893855 236.621579,37.0178771 235.717104,36.7162011 C234.812628,36.4145251 234.078998,36.0223464 233.516213,35.5396648 C232.953428,35.0569832 232.672036,34.4335196 232.672036,33.6692737 C232.672036,33.0256983 232.832832,32.5128492 233.154423,32.1307263 C233.476014,31.7486034 233.867954,31.4569832 234.330241,31.2558659 C234.792529,31.0547486 235.305065,30.9240223 235.86785,30.8636872 C236.430634,30.803352 236.95322,30.7731844 237.435607,30.7731844 C238.963166,30.7731844 240.28973,31.0648045 241.4153,31.6480447 C242.540869,32.2312849 243.163952,33.347486 243.284549,34.996648 L251.424829,34.996648 C251.264033,33.0659218 250.771597,31.4670391 249.947519,30.2 C249.123441,28.9329609 248.088319,27.9173184 246.842153,27.1530726 C245.595987,26.3888268 244.178975,25.8458101 242.591118,25.5240223 C241.003261,25.2022346 239.365155,25.0413408 237.676801,25.0413408 C235.988446,25.0413408 234.340291,25.1921788 232.732334,25.4938547 C231.124378,25.7955307 229.677217,26.3184358 228.390852,27.0625698 C227.104487,27.8067039 226.069365,28.8223464 225.285486,30.1094972 C224.501607,31.396648 224.109668,33.0458101 224.109668,35.0569832 C224.109668,36.424581 224.39106,37.5810056 224.953845,38.526257 C225.51663,39.4715084 226.260309,40.2558659 227.184884,40.8793296 C228.109459,41.5027933 229.164681,42.0055866 230.350549,42.3877095 C231.536417,42.7698324 232.752434,43.101676 233.9986,43.3832402 C237.053718,44.0268156 239.435503,44.6703911 241.143957,45.3139665 C242.852411,45.9575419 243.706638,46.922905 243.706638,48.2100559 C243.706638,48.9743017 243.525743,49.6078212 243.163952,50.1106145 C242.802162,50.6134078 242.349924,51.0156425 241.807239,51.3173184 C241.264554,51.6189944 240.66157,51.8402235 239.998288,51.9810056 C239.335006,52.1217877 238.701873,52.1921788 238.098889,52.1921788 C237.254712,52.1921788 236.440684,52.0916201 235.656805,51.8905028 C234.872927,51.6893855 234.179495,51.3776536 233.576512,50.9553073 C232.973528,50.5329609 232.481091,49.9899441 232.099202,49.326257 C231.717312,48.6625698 231.526367,47.8681564 231.526367,46.9430168 L223.386087,46.9430168 C223.466485,49.0346369 223.938822,50.7743017 224.803099,52.1620112 C225.667376,53.5497207 226.772846,54.6659218 228.119509,55.5106145 C229.466173,56.3553073 231.003781,56.9586592 232.732334,57.3206704 C234.460888,57.6826816 236.22964,57.8636872 238.038591,57.8636872 Z M267.795836,57.8636872 C271.333341,57.8636872 274.348259,57.0592179 276.840592,55.4502793 C279.332924,53.8413408 281.182074,51.1664804 282.388042,47.4256983 L274.850745,47.4256983 C274.569353,48.3910615 273.805574,49.3061453 272.559407,50.1709497 C271.313241,51.0357542 269.825881,51.4681564 268.097328,51.4681564 C265.685393,51.4681564 263.836243,50.8446927 262.549878,49.5977654 C261.263513,48.350838 260.560032,46.3396648 260.439435,43.5642458 L282.930727,43.5642458 C283.091523,41.150838 282.890528,38.8379888 282.327743,36.6256983 C281.764958,34.4134078 280.850433,32.4424581 279.584167,30.7128492 C278.317902,28.9832402 276.699895,27.6055866 274.730149,26.5798883 C272.760402,25.5541899 270.448964,25.0413408 267.795836,25.0413408 C265.4241,25.0413408 263.263409,25.4636872 261.313761,26.3083799 C259.364114,27.1530726 257.68581,28.3094972 256.278848,29.7776536 C254.871886,31.2458101 253.786515,32.9854749 253.022736,34.996648 C252.258956,37.0078212 251.877067,39.1798883 251.877067,41.5128492 C251.877067,43.926257 252.248907,46.1385475 252.992587,48.1497207 C253.736266,50.1608939 254.791488,51.8905028 256.158251,53.3385475 C257.525014,54.7865922 259.193269,55.9027933 261.163016,56.6871508 C263.132762,57.4715084 265.343702,57.8636872 267.795836,57.8636872 Z M274.368358,38.1340782 L260.439435,38.1340782 C260.479634,37.5307263 260.610281,36.8469274 260.831375,36.0826816 C261.052469,35.3184358 261.434358,34.5944134 261.977044,33.9106145 C262.519729,33.2268156 263.243309,32.6536313 264.147785,32.1910615 C265.05226,31.7284916 266.18788,31.4972067 267.554643,31.4972067 C269.644986,31.4972067 271.202694,32.0603352 272.227766,33.1865922 C273.252839,34.3128492 273.966369,35.9620112 274.368358,38.1340782 Z" id="JoyHouse" fill="#252525" fill-rule="nonzero"></path>
            <path d="M289.034429,34.3827374 C289.694696,34.3827374 290.325568,34.2605587 290.927044,34.0162011 C291.528521,33.7718436 292.057639,33.427933 292.514399,32.9844693 C292.971159,32.5410056 293.332949,32.0070391 293.59977,31.3825698 C293.86659,30.7581006 294,30.0657542 294,29.3055307 C294,28.5453073 293.86659,27.8529609 293.59977,27.2284916 C293.332949,26.6040223 292.971159,26.0700559 292.514399,25.6265922 C292.057639,25.1831285 291.528521,24.8392179 290.927044,24.5948603 C290.325568,24.3505028 289.694696,24.228324 289.034429,24.228324 C288.365117,24.228324 287.727462,24.3505028 287.121464,24.5948603 C286.515465,24.8392179 285.984086,25.1831285 285.527325,25.6265922 C285.070565,26.0700559 284.708775,26.6040223 284.441955,27.2284916 C284.175134,27.8529609 284.041724,28.5453073 284.041724,29.3055307 C284.041724,30.0295531 284.16609,30.7015363 284.41482,31.3214804 C284.663551,31.9414246 285.007252,32.4776536 285.445923,32.9301676 C285.884593,33.3826816 286.409189,33.737905 287.01971,33.995838 C287.630231,34.2537709 288.301804,34.3827374 289.034429,34.3827374 Z M289.034429,33.5003352 C288.428431,33.5003352 287.885745,33.3894693 287.406373,33.1677374 C286.927001,32.9460056 286.517726,32.6450838 286.178548,32.2649721 C285.839369,31.8848603 285.579333,31.4413966 285.398438,30.934581 C285.217543,30.4277654 285.127095,29.8847486 285.127095,29.3055307 C285.127095,28.6901117 285.226587,28.1244693 285.425572,27.6086034 C285.624557,27.0927374 285.900422,26.6492737 286.253167,26.2782123 C286.605912,25.9071508 287.01971,25.6198045 287.49456,25.4161732 C287.969409,25.2125419 288.482699,25.1107263 289.034429,25.1107263 C289.577115,25.1107263 290.083621,25.2125419 290.553948,25.4161732 C291.024275,25.6198045 291.435812,25.9071508 291.788557,26.2782123 C292.141303,26.6492737 292.417168,27.0927374 292.616152,27.6086034 C292.815137,28.1244693 292.914629,28.6901117 292.914629,29.3055307 C292.914629,29.93 292.815137,30.497905 292.616152,31.0092458 C292.417168,31.5205866 292.141303,31.9617877 291.788557,32.3328492 C291.435812,32.7039106 291.024275,32.991257 290.553948,33.1948883 C290.083621,33.3985196 289.577115,33.5003352 289.034429,33.5003352 Z M288.030461,32.2106704 L288.030461,29.8078212 L288.898758,29.8078212 L290.350441,32.2106704 L291.39511,32.2106704 L289.821323,29.7399441 C290.237382,29.6946927 290.585605,29.5544134 290.865992,29.3191061 C291.14638,29.0837989 291.286573,28.7127374 291.286573,28.2059218 C291.286573,27.6357542 291.114723,27.2239665 290.771022,26.9705587 C290.427322,26.7171508 289.916293,26.5904469 289.237936,26.5904469 L289.237936,26.5904469 L287.107896,26.5904469 L287.107896,32.2106704 L288.030461,32.2106704 Z M289.061564,29.0204469 L288.030461,29.0204469 L288.030461,27.3778212 L289.142966,27.3778212 C289.278638,27.3778212 289.418831,27.3846089 289.563547,27.3981844 C289.708264,27.4117598 289.839413,27.4456983 289.956994,27.5 C290.074576,27.5543017 290.171807,27.6312291 290.248688,27.7307821 C290.325568,27.8303352 290.364008,27.9660894 290.364008,28.1380447 C290.364008,28.3462011 290.327829,28.5068436 290.255471,28.6199721 C290.183113,28.7331006 290.088143,28.8213408 289.970561,28.8846927 C289.85298,28.9480447 289.715047,28.9865084 289.556764,29.0000838 C289.398481,29.0136592 289.233414,29.0204469 289.061564,29.0204469 L289.061564,29.0204469 Z" id="®" fill="#252525" fill-rule="nonzero"></path>
        </g>
    </g>
</svg>