<?xml version="1.0" encoding="UTF-8"?>
<svg width="280px" height="54px" viewBox="0 0 280 54" version="1.1" xmlns="http://www.w3.org/2000/svg" xmlns:xlink="http://www.w3.org/1999/xlink">
    <title>Mask</title>
    <g id="Page-1" stroke="none" stroke-width="1" fill="none" fill-rule="evenodd">
        <g id="Mask" fill="#FFFFFF" fill-rule="nonzero">
            <path d="M14.1701168,44.0446927 C17.3860298,44.0446927 19.9386608,43.5519553 21.8280097,42.5664804 C23.7173586,41.5810056 25.1645194,40.3541899 26.1694923,38.8860335 C27.1744651,37.4178771 27.8176477,35.8391061 28.0990401,34.1497207 C28.3804325,32.4603352 28.5211287,30.9117318 28.5211287,29.5039106 L28.5211287,0 L19.0542847,0 L19.0542847,29.0815642 C19.0542847,29.8458101 19.0241355,30.6402235 18.9638371,31.4648045 C18.9035388,32.2893855 18.7226437,33.0536313 18.4211518,33.7575419 C18.11966,34.4614525 17.6272233,35.0346369 16.9438418,35.477095 C16.2604602,35.9195531 15.2956863,36.1407821 14.04952,36.1407821 C12.9239505,36.1407821 12.0094252,35.9597765 11.3059442,35.5977654 C10.6024633,35.2357542 10.0497282,34.7430168 9.64773908,34.1195531 C9.24574995,33.4960894 8.96435756,32.7418994 8.80356191,31.8569832 C8.64276626,30.972067 8.56236843,30.0067039 8.56236843,28.9608939 L8.56236843,27.0301676 L0,27.0301676 L0,30.7709497 C0,33.1441341 0.401989128,35.1653631 1.20596739,36.8346369 C2.00994564,38.5039106 3.07521683,39.8715084 4.40178096,40.9374302 C5.72834508,42.003352 7.23580431,42.7877095 8.92415865,43.2905028 C10.612513,43.7932961 12.3611657,44.0446927 14.1701168,44.0446927 Z M47.1834739,43.8636872 C49.6356076,43.8636872 51.8565976,43.4815642 53.8464437,42.7173184 C55.8362899,41.9530726 57.534694,40.8569832 58.9416559,39.4290503 C60.3486179,38.0011173 61.4339885,36.2815642 62.1977679,34.2703911 C62.9615472,32.2592179 63.3434369,30.0067039 63.3434369,27.5128492 C63.3434369,25.0189944 62.9615472,22.7564246 62.1977679,20.7251397 C61.4339885,18.6938547 60.3486179,16.9642458 58.9416559,15.5363128 C57.534694,14.1083799 55.8362899,13.0022346 53.8464437,12.2178771 C51.8565976,11.4335196 49.6356076,11.0413408 47.1834739,11.0413408 C44.7313403,11.0413408 42.5204001,11.4335196 40.5506533,12.2178771 C38.5809066,13.0022346 36.8925523,14.1083799 35.4855903,15.5363128 C34.0786284,16.9642458 32.9932577,18.6938547 32.2294784,20.7251397 C31.465699,22.7564246 31.0838093,25.0189944 31.0838093,27.5128492 C31.0838093,30.0067039 31.465699,32.2592179 32.2294784,34.2703911 C32.9932577,36.2815642 34.0786284,38.0011173 35.4855903,39.4290503 C36.8925523,40.8569832 38.5809066,41.9530726 40.5506533,42.7173184 C42.5204001,43.4815642 44.7313403,43.8636872 47.1834739,43.8636872 Z M47.1834739,37.4681564 C45.7363131,37.4681564 44.5303457,37.1865922 43.5655718,36.6234637 C42.6007979,36.0603352 41.8269688,35.3061453 41.2440846,34.3608939 C40.6612003,33.4156425 40.2491615,32.3497207 40.007968,31.1631285 C39.7667745,29.9765363 39.6461778,28.7597765 39.6461778,27.5128492 C39.6461778,26.2659218 39.7667745,25.0391061 40.007968,23.8324022 C40.2491615,22.6256983 40.6612003,21.5597765 41.2440846,20.6346369 C41.8269688,19.7094972 42.6007979,18.9553073 43.5655718,18.372067 C44.5303457,17.7888268 45.7363131,17.4972067 47.1834739,17.4972067 C48.6306348,17.4972067 49.8466519,17.7888268 50.8315253,18.372067 C51.8163986,18.9553073 52.6002774,19.7094972 53.1831617,20.6346369 C53.7660459,21.5597765 54.1780848,22.6256983 54.4192783,23.8324022 C54.6604717,25.0391061 54.7810685,26.2659218 54.7810685,27.5128492 C54.7810685,28.7597765 54.6604717,29.9765363 54.4192783,31.1631285 C54.1780848,32.3497207 53.7660459,33.4156425 53.1831617,34.3608939 C52.6002774,35.3061453 51.8163986,36.0603352 50.8315253,36.6234637 C49.8466519,37.1865922 48.6306348,37.4681564 47.1834739,37.4681564 Z M69.6446165,54 C72.5791371,54 74.8704752,53.4569832 76.5186306,52.3709497 C78.166786,51.2849162 79.4531512,49.4748603 80.3777262,46.9407821 L93.402174,11.8860335 L84.5383137,11.8860335 L77.724598,33.2446927 L77.6040012,33.2446927 L70.549092,11.8860335 L61.4440383,11.8860335 L72.3580431,41.1486034 C72.5992366,41.7519553 72.7198333,42.3955307 72.7198333,43.0793296 C72.7198333,44.0044693 72.4484907,44.849162 71.9058053,45.6134078 C71.36312,46.3776536 70.5289926,46.8201117 69.403423,46.9407821 C68.5592458,46.9810056 67.7150687,46.9608939 66.8708915,46.8804469 C66.0267143,46.8 65.2026366,46.7195531 64.3986584,46.6391061 L64.3986584,53.698324 C65.2830344,53.7787709 66.1573608,53.849162 67.0216374,53.9094972 C67.885914,53.9698324 68.7602404,54 69.6446165,54 Z M115.652272,43.0793296 L115.652272,24.4960894 L133.078501,24.4960894 L133.078501,43.0793296 L142.545345,43.0793296 L142.545345,0 L133.078501,0 L133.078501,16.5318436 L115.652272,16.5318436 L115.652272,0 L106.185428,0 L106.185428,43.0793296 L115.652272,43.0793296 Z M161.20769,43.8636872 C163.659824,43.8636872 165.880814,43.4815642 167.87066,42.7173184 C169.860506,41.9530726 171.55891,40.8569832 172.965872,39.4290503 C174.372834,38.0011173 175.458205,36.2815642 176.221984,34.2703911 C176.985763,32.2592179 177.367653,30.0067039 177.367653,27.5128492 C177.367653,25.0189944 176.985763,22.7564246 176.221984,20.7251397 C175.458205,18.6938547 174.372834,16.9642458 172.965872,15.5363128 C171.55891,14.1083799 169.860506,13.0022346 167.87066,12.2178771 C165.880814,11.4335196 163.659824,11.0413408 161.20769,11.0413408 C158.755557,11.0413408 156.544616,11.4335196 154.57487,12.2178771 C152.605123,13.0022346 150.916769,14.1083799 149.509807,15.5363128 C148.102845,16.9642458 147.017474,18.6938547 146.253695,20.7251397 C145.489915,22.7564246 145.108026,25.0189944 145.108026,27.5128492 C145.108026,30.0067039 145.489915,32.2592179 146.253695,34.2703911 C147.017474,36.2815642 148.102845,38.0011173 149.509807,39.4290503 C150.916769,40.8569832 152.605123,41.9530726 154.57487,42.7173184 C156.544616,43.4815642 158.755557,43.8636872 161.20769,43.8636872 Z M161.20769,37.4681564 C159.760529,37.4681564 158.554562,37.1865922 157.589788,36.6234637 C156.625014,36.0603352 155.851185,35.3061453 155.268301,34.3608939 C154.685417,33.4156425 154.273378,32.3497207 154.032184,31.1631285 C153.790991,29.9765363 153.670394,28.7597765 153.670394,27.5128492 C153.670394,26.2659218 153.790991,25.0391061 154.032184,23.8324022 C154.273378,22.6256983 154.685417,21.5597765 155.268301,20.6346369 C155.851185,19.7094972 156.625014,18.9553073 157.589788,18.372067 C158.554562,17.7888268 159.760529,17.4972067 161.20769,17.4972067 C162.654851,17.4972067 163.870868,17.7888268 164.855742,18.372067 C165.840615,18.9553073 166.624494,19.7094972 167.207378,20.6346369 C167.790262,21.5597765 168.202301,22.6256983 168.443495,23.8324022 C168.684688,25.0391061 168.805285,26.2659218 168.805285,27.5128492 C168.805285,28.7597765 168.684688,29.9765363 168.443495,31.1631285 C168.202301,32.3497207 167.790262,33.4156425 167.207378,34.3608939 C166.624494,35.3061453 165.840615,36.0603352 164.855742,36.6234637 C163.870868,37.1865922 162.654851,37.4681564 161.20769,37.4681564 Z M190.42225,43.8636872 C192.231201,43.8636872 193.999953,43.4614525 195.728507,42.6569832 C197.45706,41.852514 198.864022,40.5452514 199.949392,38.7351955 L200.130288,38.7351955 L200.130288,43.0793296 L208.270567,43.0793296 L208.270567,11.8860335 L199.708199,11.8860335 L199.708199,28.2368715 C199.708199,31.4145251 199.185613,33.6972067 198.140441,35.0849162 C197.09527,36.4726257 195.406915,37.1664804 193.075378,37.1664804 C191.025234,37.1664804 189.598172,36.5329609 188.794194,35.2659218 C187.990216,33.9988827 187.588227,32.0782123 187.588227,29.5039106 L187.588227,11.8860335 L179.025858,11.8860335 L179.025858,31.0726257 C179.025858,33.003352 179.196704,34.7631285 179.538394,36.3519553 C179.880085,37.9407821 180.473019,39.2882682 181.317196,40.3944134 C182.161374,41.5005587 183.317092,42.3553073 184.784353,42.9586592 C186.251613,43.5620112 188.130912,43.8636872 190.42225,43.8636872 Z M224.038591,43.8636872 C225.807343,43.8636872 227.545946,43.6927374 229.2544,43.350838 C230.962854,43.0089385 232.480363,42.4156425 233.806927,41.5709497 C235.133491,40.726257 236.208812,39.6100559 237.03289,38.2223464 C237.856967,36.8346369 238.269006,35.1150838 238.269006,33.0636872 C238.269006,31.6156425 237.987614,30.3988827 237.424829,29.4134078 C236.862044,28.427933 236.118364,27.603352 235.193789,26.9396648 C234.269214,26.2759777 233.213993,25.7430168 232.028125,25.3407821 C230.842257,24.9385475 229.62624,24.596648 228.380074,24.3150838 C227.174106,24.0335196 225.988238,23.772067 224.82247,23.5307263 C223.656701,23.2893855 222.621579,23.0178771 221.717104,22.7162011 C220.812628,22.4145251 220.078998,22.0223464 219.516213,21.5396648 C218.953428,21.0569832 218.672036,20.4335196 218.672036,19.6692737 C218.672036,19.0256983 218.832832,18.5128492 219.154423,18.1307263 C219.476014,17.7486034 219.867954,17.4569832 220.330241,17.2558659 C220.792529,17.0547486 221.305065,16.9240223 221.86785,16.8636872 C222.430634,16.803352 222.95322,16.7731844 223.435607,16.7731844 C224.963166,16.7731844 226.28973,17.0648045 227.4153,17.6480447 C228.540869,18.2312849 229.163952,19.347486 229.284549,20.996648 L237.424829,20.996648 C237.264033,19.0659218 236.771597,17.4670391 235.947519,16.2 C235.123441,14.9329609 234.088319,13.9173184 232.842153,13.1530726 C231.595987,12.3888268 230.178975,11.8458101 228.591118,11.5240223 C227.003261,11.2022346 225.365155,11.0413408 223.676801,11.0413408 C221.988446,11.0413408 220.340291,11.1921788 218.732334,11.4938547 C217.124378,11.7955307 215.677217,12.3184358 214.390852,13.0625698 C213.104487,13.8067039 212.069365,14.8223464 211.285486,16.1094972 C210.501607,17.396648 210.109668,19.0458101 210.109668,21.0569832 C210.109668,22.424581 210.39106,23.5810056 210.953845,24.526257 C211.51663,25.4715084 212.260309,26.2558659 213.184884,26.8793296 C214.109459,27.5027933 215.164681,28.0055866 216.350549,28.3877095 C217.536417,28.7698324 218.752434,29.101676 219.9986,29.3832402 C223.053718,30.0268156 225.435503,30.6703911 227.143957,31.3139665 C228.852411,31.9575419 229.706638,32.922905 229.706638,34.2100559 C229.706638,34.9743017 229.525743,35.6078212 229.163952,36.1106145 C228.802162,36.6134078 228.349924,37.0156425 227.807239,37.3173184 C227.264554,37.6189944 226.66157,37.8402235 225.998288,37.9810056 C225.335006,38.1217877 224.701873,38.1921788 224.098889,38.1921788 C223.254712,38.1921788 222.440684,38.0916201 221.656805,37.8905028 C220.872927,37.6893855 220.179495,37.3776536 219.576512,36.9553073 C218.973528,36.5329609 218.481091,35.9899441 218.099202,35.326257 C217.717312,34.6625698 217.526367,33.8681564 217.526367,32.9430168 L209.386087,32.9430168 C209.466485,35.0346369 209.938822,36.7743017 210.803099,38.1620112 C211.667376,39.5497207 212.772846,40.6659218 214.119509,41.5106145 C215.466173,42.3553073 217.003781,42.9586592 218.732334,43.3206704 C220.460888,43.6826816 222.22964,43.8636872 224.038591,43.8636872 Z M253.795836,43.8636872 C257.333341,43.8636872 260.348259,43.0592179 262.840592,41.4502793 C265.332924,39.8413408 267.182074,37.1664804 268.388042,33.4256983 L260.850745,33.4256983 C260.569353,34.3910615 259.805574,35.3061453 258.559407,36.1709497 C257.313241,37.0357542 255.825881,37.4681564 254.097328,37.4681564 C251.685393,37.4681564 249.836243,36.8446927 248.549878,35.5977654 C247.263513,34.350838 246.560032,32.3396648 246.439435,29.5642458 L268.930727,29.5642458 C269.091523,27.150838 268.890528,24.8379888 268.327743,22.6256983 C267.764958,20.4134078 266.850433,18.4424581 265.584167,16.7128492 C264.317902,14.9832402 262.699895,13.6055866 260.730149,12.5798883 C258.760402,11.5541899 256.448964,11.0413408 253.795836,11.0413408 C251.4241,11.0413408 249.263409,11.4636872 247.313761,12.3083799 C245.364114,13.1530726 243.68581,14.3094972 242.278848,15.7776536 C240.871886,17.2458101 239.786515,18.9854749 239.022736,20.996648 C238.258956,23.0078212 237.877067,25.1798883 237.877067,27.5128492 C237.877067,29.926257 238.248907,32.1385475 238.992587,34.1497207 C239.736266,36.1608939 240.791488,37.8905028 242.158251,39.3385475 C243.525014,40.7865922 245.193269,41.9027933 247.163016,42.6871508 C249.132762,43.4715084 251.343702,43.8636872 253.795836,43.8636872 Z M260.368358,24.1340782 L246.439435,24.1340782 C246.479634,23.5307263 246.610281,22.8469274 246.831375,22.0826816 C247.052469,21.3184358 247.434358,20.5944134 247.977044,19.9106145 C248.519729,19.2268156 249.243309,18.6536313 250.147785,18.1910615 C251.05226,17.7284916 252.18788,17.4972067 253.554643,17.4972067 C255.644986,17.4972067 257.202694,18.0603352 258.227766,19.1865922 C259.252839,20.3128492 259.966369,21.9620112 260.368358,24.1340782 Z" id="JoyHouse"></path>
            <path d="M275.034429,20.3827374 C275.694696,20.3827374 276.325568,20.2605587 276.927044,20.0162011 C277.528521,19.7718436 278.057639,19.427933 278.514399,18.9844693 C278.971159,18.5410056 279.332949,18.0070391 279.59977,17.3825698 C279.86659,16.7581006 280,16.0657542 280,15.3055307 C280,14.5453073 279.86659,13.8529609 279.59977,13.2284916 C279.332949,12.6040223 278.971159,12.0700559 278.514399,11.6265922 C278.057639,11.1831285 277.528521,10.8392179 276.927044,10.5948603 C276.325568,10.3505028 275.694696,10.228324 275.034429,10.228324 C274.365117,10.228324 273.727462,10.3505028 273.121464,10.5948603 C272.515465,10.8392179 271.984086,11.1831285 271.527325,11.6265922 C271.070565,12.0700559 270.708775,12.6040223 270.441955,13.2284916 C270.175134,13.8529609 270.041724,14.5453073 270.041724,15.3055307 C270.041724,16.0295531 270.16609,16.7015363 270.41482,17.3214804 C270.663551,17.9414246 271.007252,18.4776536 271.445923,18.9301676 C271.884593,19.3826816 272.409189,19.737905 273.01971,19.995838 C273.630231,20.2537709 274.301804,20.3827374 275.034429,20.3827374 Z M275.034429,19.5003352 C274.428431,19.5003352 273.885745,19.3894693 273.406373,19.1677374 C272.927001,18.9460056 272.517726,18.6450838 272.178548,18.2649721 C271.839369,17.8848603 271.579333,17.4413966 271.398438,16.934581 C271.217543,16.4277654 271.127095,15.8847486 271.127095,15.3055307 C271.127095,14.6901117 271.226587,14.1244693 271.425572,13.6086034 C271.624557,13.0927374 271.900422,12.6492737 272.253167,12.2782123 C272.605912,11.9071508 273.01971,11.6198045 273.49456,11.4161732 C273.969409,11.2125419 274.482699,11.1107263 275.034429,11.1107263 C275.577115,11.1107263 276.083621,11.2125419 276.553948,11.4161732 C277.024275,11.6198045 277.435812,11.9071508 277.788557,12.2782123 C278.141303,12.6492737 278.417168,13.0927374 278.616152,13.6086034 C278.815137,14.1244693 278.914629,14.6901117 278.914629,15.3055307 C278.914629,15.93 278.815137,16.497905 278.616152,17.0092458 C278.417168,17.5205866 278.141303,17.9617877 277.788557,18.3328492 C277.435812,18.7039106 277.024275,18.991257 276.553948,19.1948883 C276.083621,19.3985196 275.577115,19.5003352 275.034429,19.5003352 Z M274.030461,18.2106704 L274.030461,15.8078212 L274.898758,15.8078212 L276.350441,18.2106704 L277.39511,18.2106704 L275.821323,15.7399441 C276.237382,15.6946927 276.585605,15.5544134 276.865992,15.3191061 C277.14638,15.0837989 277.286573,14.7127374 277.286573,14.2059218 C277.286573,13.6357542 277.114723,13.2239665 276.771022,12.9705587 C276.427322,12.7171508 275.916293,12.5904469 275.237936,12.5904469 L275.237936,12.5904469 L273.107896,12.5904469 L273.107896,18.2106704 L274.030461,18.2106704 Z M275.061564,15.0204469 L274.030461,15.0204469 L274.030461,13.3778212 L275.142966,13.3778212 C275.278638,13.3778212 275.418831,13.3846089 275.563547,13.3981844 C275.708264,13.4117598 275.839413,13.4456983 275.956994,13.5 C276.074576,13.5543017 276.171807,13.6312291 276.248688,13.7307821 C276.325568,13.8303352 276.364008,13.9660894 276.364008,14.1380447 C276.364008,14.3462011 276.327829,14.5068436 276.255471,14.6199721 C276.183113,14.7331006 276.088143,14.8213408 275.970561,14.8846927 C275.85298,14.9480447 275.715047,14.9865084 275.556764,15.0000838 C275.398481,15.0136592 275.233414,15.0204469 275.061564,15.0204469 L275.061564,15.0204469 Z" id="®"></path>
        </g>
    </g>
</svg>